# xmcd
#
# Track frame offsets: 
#        150
#        15767
#        32142
#        52485
#        79740
#        102907
#        121765
#        141400
#        161912
#        184252
#        204920
#        238702
#
# Disc length: 3231 seconds
#
# Revision: 12
# Processed by: cddbd v1.5.2PL0 Copyright (c) Steve Scherf et al.
# Submitted via: ExactAudioCopy v1.0b3
#
DISCID=a10c9d0c
DTITLE=Alanis Morissette - Under Rug Swept
DYEAR=2002
DGENRE=Alternative
TTITLE0=21 Things I Want in a Lover
TTITLE1=Narcissus
TTITLE2=Hands Clean
TTITLE3=Flinch
TTITLE4=So Unsexy
TTITLE5=Precious Illusions
TTITLE6=That Particular Time
TTITLE7=A Man
TTITLE8=You Owe Me Nothing In Return
TTITLE9=Surrendering
TTITLE10=Utopia
TTITLE11=(Data)
EXTD=
EXTT0=
EXTT1=
EXTT2=
EXTT3=
EXTT4=
EXTT5=
EXTT6=
EXTT7=
EXTT8=
EXTT9=
EXTT10=
EXTT11=
PLAYORDER=
